<svg width="16" height="16" viewBox="0 0 16 16" fill="none" xmlns="http://www.w3.org/2000/svg">
<path d="M10.8853 2.86336L8.77817 4.18029C8.48864 4.36124 8.34388 4.45172 8.18859 4.51574C8.05073 4.57257 7.90695 4.61381 7.75992 4.63868C7.5943 4.6667 7.42359 4.6667 7.08217 4.6667H3.99992C2.33325 4.6667 1.33325 6.00003 1.33325 7.33336C1.33325 8.6667 2.33325 10 3.99992 10V13.3334C3.99992 14.0697 4.59687 14.6667 5.33325 14.6667C6.06963 14.6667 6.66659 14.0697 6.66659 13.3334V10H7.08217C7.42359 10 7.5943 10 7.75992 10.028C7.90695 10.0529 8.05073 10.0942 8.18859 10.151C8.34388 10.215 8.48864 10.3055 8.77817 10.4864L10.8853 11.8034C11.6842 12.3027 12.0837 12.5524 12.4134 12.5259C12.7007 12.5028 12.9642 12.3568 13.1361 12.1254C13.3333 11.8598 13.3333 11.3888 13.3333 10.4466V4.22016C13.3333 3.27797 13.3333 2.80688 13.1361 2.54136C12.9642 2.30992 12.7007 2.16393 12.4134 2.14083C12.0837 2.11432 11.6842 2.364 10.8853 2.86336Z" fill="#242430"/>
</svg>
