<svg width="20" height="20" viewBox="0 0 20 20" fill="none" xmlns="http://www.w3.org/2000/svg">
<path opacity="0.99" fill-rule="evenodd" clip-rule="evenodd" d="M9.69177 0.915771C13.7601 0.996267 16.646 2.87171 18.3496 6.54214C19.5611 9.87819 19.0923 12.95 16.943 15.7578C14.7778 18.2258 12.0535 19.2848 8.77021 18.9347C5.45419 18.399 3.08563 16.6125 1.66449 13.5751C0.311202 10.0218 0.844737 6.7882 3.26509 3.87447C5.01242 2.0335 7.15466 1.04727 9.69177 0.915771ZM9.74027 5.08705C10.8315 5.05426 11.2923 5.57159 11.1226 6.63915C10.7542 7.23108 10.2287 7.43315 9.54626 7.24544C9.04633 7.07849 8.78762 6.73087 8.77021 6.20262C8.8191 5.58809 9.14247 5.21621 9.74027 5.08705ZM8.96422 8.09425C9.64326 8.09425 10.3223 8.09425 11.0014 8.09425C11.0014 10.3577 11.0014 12.6212 11.0014 14.8847C10.3223 14.8847 9.64326 14.8847 8.96422 14.8847C8.96422 12.6212 8.96422 10.3577 8.96422 8.09425Z" fill="white"/>
</svg>
