<svg width="20" height="20" viewBox="0 0 20 20" fill="none" xmlns="http://www.w3.org/2000/svg">
<g clip-path="url(#clip0_14_3039)">
<path opacity="0.988" fill-rule="evenodd" clip-rule="evenodd" d="M11.543 -0.0195312C12.0898 -0.0195312 12.6367 -0.0195312 13.1836 -0.0195312C15.3618 0.182788 17.1782 1.09425 18.6328 2.71484C19.3583 3.60902 19.8075 4.62465 19.9805 5.76172C19.9805 6.20441 19.9805 6.64715 19.9805 7.08984C19.8029 8.3043 19.3081 9.37203 18.4961 10.293C18.9929 10.8806 19.4877 11.4666 19.9805 12.0508C19.9805 12.207 19.9805 12.3633 19.9805 12.5195C19.9096 12.675 19.7924 12.7856 19.6289 12.8516C18.952 12.8711 18.2749 12.8776 17.5977 12.8711C17.5048 10.7652 16.6976 8.98785 15.1758 7.53906C12.8125 5.47973 10.0651 4.62035 6.93359 4.96094C6.20164 5.05605 5.48551 5.21879 4.78516 5.44922C4.87297 4.73715 5.11387 4.07309 5.50781 3.45703C6.66691 1.74663 8.26199 0.659391 10.293 0.195312C10.713 0.110352 11.1297 0.0387377 11.543 -0.0195312Z" fill="#242430" fill-opacity="0.501961"/>
<path opacity="0.991" fill-rule="evenodd" clip-rule="evenodd" d="M9.51172 19.9804C6.45184 19.9804 3.39193 19.9804 0.332031 19.9804C0.273948 19.9295 0.208844 19.884 0.136719 19.8437C0.0899773 19.765 0.0378939 19.6934 -0.0195312 19.6289C-0.0195312 19.4726 -0.0195312 19.3164 -0.0195312 19.1601C0.525312 18.5238 1.07219 17.8858 1.62109 17.2461C0.713828 16.2128 0.166951 15.0149 -0.0195312 13.6523C-0.0195312 13.1966 -0.0195312 12.7409 -0.0195312 12.2851C0.361464 10.1633 1.46823 8.52919 3.30078 7.38279C5.71227 5.98775 8.26434 5.66224 10.957 6.40623C13.0962 7.02283 14.7173 8.29236 15.8203 10.2148C16.8894 12.5575 16.655 14.758 15.1172 16.8164C13.6507 18.5742 11.7822 19.6289 9.51172 19.9804ZM4.39453 11.7383C5.37672 11.6983 5.83895 12.167 5.78125 13.1445C5.49043 13.9147 4.95008 14.1686 4.16016 13.9062C3.57287 13.5377 3.39709 13.0234 3.63281 12.3633C3.80126 12.0445 4.05516 11.8362 4.39453 11.7383ZM7.94922 11.7383C8.93141 11.6983 9.39363 12.167 9.33594 13.1445C9.04512 13.9147 8.50477 14.1686 7.71484 13.9062C7.09625 13.5084 6.93348 12.9681 7.22656 12.2851C7.40336 12.0119 7.64426 11.8296 7.94922 11.7383ZM11.5039 11.7383C12.4861 11.6983 12.9483 12.167 12.8906 13.1445C12.5998 13.9147 12.0595 14.1686 11.2695 13.9062C10.6509 13.5084 10.4882 12.9681 10.7812 12.2851C10.958 12.0119 11.1989 11.8296 11.5039 11.7383Z" fill="#242430" fill-opacity="0.501961"/>
</g>
<defs>
<clipPath id="clip0_14_3039">
<rect width="20" height="20" fill="white"/>
</clipPath>
</defs>
</svg>
