<svg width="20" height="20" viewBox="0 0 20 20" fill="none" xmlns="http://www.w3.org/2000/svg">
<g clip-path="url(#clip0_14_3044)">
<path opacity="0.991" fill-rule="evenodd" clip-rule="evenodd" d="M9.51172 -0.0195312C9.87629 -0.0195312 10.2409 -0.0195312 10.6055 -0.0195312C11.2827 0.110634 11.8947 0.390581 12.4414 0.820312C12.6303 0.983914 12.7865 1.17271 12.9102 1.38672C13.5898 1.6115 13.9869 2.08025 14.1016 2.79297C14.2419 3.73909 14.1963 4.6766 13.9648 5.60547C14.2082 5.60637 14.3579 5.72355 14.4141 5.95703C14.4618 6.79895 14.2665 7.5802 13.8281 8.30078C13.7507 8.38504 13.6596 8.45016 13.5547 8.49609C13.2701 9.76355 12.5865 10.7466 11.5039 11.4453C9.93848 12.1788 8.57777 11.8988 7.42188 10.6055C6.89582 9.99598 6.5573 9.29285 6.40625 8.49609C6.21191 8.40594 6.06871 8.2627 5.97656 8.06641C5.7225 7.50582 5.55973 6.91988 5.48828 6.30859C5.49375 6.08504 5.55883 5.8832 5.68359 5.70312C5.78211 5.65074 5.88629 5.6182 5.99609 5.60547C5.50945 4.07371 5.78938 2.70651 6.83594 1.50391C7.5657 0.700672 8.45762 0.192857 9.51172 -0.0195312Z" fill="#242430" fill-opacity="0.501961"/>
<path opacity="0.988" fill-rule="evenodd" clip-rule="evenodd" d="M11.1524 19.9805C10.3711 19.9805 9.58989 19.9805 8.80864 19.9805C6.39211 19.8385 4.10047 19.22 1.93364 18.125C1.8497 18.08 1.77809 18.0214 1.71879 17.9492C1.57166 17.043 1.51957 16.1316 1.56254 15.2148C1.6041 14.4218 1.93613 13.7902 2.55864 13.3203C2.6628 13.2682 2.76697 13.2161 2.87114 13.1641C4.33262 12.7749 5.69328 12.1695 6.95317 11.3477C7.04766 11.4738 7.11278 11.617 7.14848 11.7773C7.67789 13.5046 8.23129 15.2233 8.80864 16.9336C9.04141 16.3199 9.26278 15.7014 9.4727 15.0781C9.22504 14.7066 9.02325 14.3095 8.86723 13.8867C8.69668 13.3557 8.85946 12.9716 9.35551 12.7344C9.81543 12.5963 10.2712 12.6093 10.7227 12.7734C11.1308 13.0436 11.2545 13.4146 11.0938 13.8867C10.9378 14.3095 10.736 14.7066 10.4883 15.0781C10.6982 15.7014 10.9196 16.3199 11.1524 16.9336C11.7563 15.1023 12.3488 13.2664 12.9297 11.4258C12.9449 11.3895 12.9709 11.3635 13.0079 11.3477C13.5515 11.701 14.1179 12.02 14.7071 12.3047C15.5912 12.6818 16.4897 13.0204 17.4024 13.3203C17.944 13.7072 18.263 14.2346 18.3594 14.9023C18.4603 15.9453 18.4147 16.9805 18.2227 18.0078C16.7266 18.8234 15.1381 19.3833 13.4571 19.6875C12.6867 19.8147 11.9184 19.9124 11.1524 19.9805Z" fill="#242430" fill-opacity="0.501961"/>
</g>
<defs>
<clipPath id="clip0_14_3044">
<rect width="20" height="20" fill="white"/>
</clipPath>
</defs>
</svg>
