<svg width="20" height="20" viewBox="0 0 20 20" fill="none" xmlns="http://www.w3.org/2000/svg">
<g clip-path="url(#clip0_3_2434)">
<path opacity="0.983" fill-rule="evenodd" clip-rule="evenodd" d="M8.4341 -0.0509133C8.98146 -0.111623 9.50395 -0.0280239 10.0016 0.199884C11.0406 -0.26325 11.9741 -0.109988 12.8021 0.659678C13.3699 1.39956 13.4813 2.20768 13.1365 3.08405C13.0529 3.22338 12.9693 3.36271 12.8857 3.50204C12.1252 4.27654 11.3519 5.03587 10.5659 5.78011C10.1758 6.03091 9.7856 6.03091 9.39548 5.78011C8.60944 5.03587 7.83615 4.27654 7.07561 3.50204C6.41974 2.53341 6.44762 1.58596 7.15921 0.659678C7.51681 0.29639 7.94178 0.0595251 8.4341 -0.0509133Z" fill="white"/>
<path opacity="0.987" fill-rule="evenodd" clip-rule="evenodd" d="M19.0931 3.96178C19.84 3.90728 20.1256 4.24167 19.95 4.96497C17.2609 9.89731 14.5718 14.8296 11.8827 19.762C11.6252 20.0136 11.3256 20.0763 10.984 19.9501C9.78117 18.9828 8.58988 18.0005 7.41014 17.0032C6.63793 17.9831 5.85072 18.9514 5.04847 19.9083C4.76979 20.0476 4.49115 20.0476 4.21248 19.9083C4.10355 19.8273 4.02693 19.7228 3.98258 19.5948C3.96866 18.0621 3.9547 16.5295 3.94078 14.9968C2.6512 13.9339 1.36935 12.8611 0.0952303 11.7783C-0.0974986 11.4729 -0.0974986 11.1664 0.0952303 10.8587C0.313687 10.6927 0.557516 10.5743 0.826721 10.5034C6.92756 8.34216 13.0164 6.16165 19.0931 3.96178ZM12.2798 10.3153C10.4348 12.0986 8.57475 13.8681 6.69955 15.6238C6.23975 16.209 5.77996 16.7942 5.32016 17.3794C5.29228 16.5991 5.29228 15.8189 5.32016 15.0386C7.63159 13.4478 9.95146 11.8734 12.2798 10.3153Z" fill="white"/>
</g>
<defs>
<clipPath id="clip0_3_2434">
<rect width="20" height="20" fill="white"/>
</clipPath>
</defs>
</svg>
