<svg width="20" height="20" viewBox="0 0 20 20" fill="none" xmlns="http://www.w3.org/2000/svg">
<g clip-path="url(#clip0_14_3024)">
<path opacity="0.989" fill-rule="evenodd" clip-rule="evenodd" d="M8.45703 -0.0195312C8.62629 -0.0195312 8.79559 -0.0195312 8.96484 -0.0195312C9.18266 0.0762832 9.30633 0.245554 9.33594 0.488281C9.36199 6.81641 9.36199 13.1445 9.33594 19.4727C9.30633 19.7154 9.18266 19.8846 8.96484 19.9805C8.80859 19.9805 8.65234 19.9805 8.49609 19.9805C6.90313 19.6489 5.30156 19.3364 3.69141 19.043C3.69141 13.0013 3.69141 6.95965 3.69141 0.917969C5.28941 0.629602 6.87797 0.3171 8.45703 -0.0195312ZM7.28516 8.80859C7.68055 8.74234 7.93445 8.89859 8.04688 9.27734C8.07293 9.74609 8.07293 10.2148 8.04688 10.6836C7.90914 11.1073 7.62918 11.244 7.20703 11.0938C7.09254 11.0054 7.00793 10.8947 6.95312 10.7617C6.92707 10.2409 6.92707 9.72004 6.95312 9.19922C7.00238 9.01348 7.11309 8.88328 7.28516 8.80859Z" fill="#242430" fill-opacity="0.501961"/>
<path opacity="0.982" fill-rule="evenodd" clip-rule="evenodd" d="M-0.0195312 17.9883C-0.0195312 12.6497 -0.0195312 7.31121 -0.0195312 1.97266C0.0611613 1.82018 0.178349 1.69649 0.332031 1.60156C1.06322 1.45923 1.79239 1.30949 2.51953 1.15234C2.57161 7.03777 2.57161 12.9232 2.51953 18.8086C1.7629 18.6534 1.00769 18.4906 0.253906 18.3203C0.137459 18.2241 0.0463133 18.1134 -0.0195312 17.9883Z" fill="#242430" fill-opacity="0.501961"/>
<path opacity="0.985" fill-rule="evenodd" clip-rule="evenodd" d="M10.4883 1.58203C11.2306 1.57552 11.9728 1.58203 12.7148 1.60156C12.8776 1.66015 12.9883 1.77083 13.0469 1.93359C13.1046 3.59841 13.1241 5.26508 13.1055 6.93359C12.2331 6.93359 11.3607 6.93359 10.4883 6.93359C10.4883 5.14972 10.4883 3.36589 10.4883 1.58203Z" fill="#242430" fill-opacity="0.501961"/>
<path opacity="0.993" fill-rule="evenodd" clip-rule="evenodd" d="M19.9805 9.78519C19.9805 9.91538 19.9805 10.0456 19.9805 10.1758C19.1452 11.0698 18.2858 11.9487 17.4023 12.8125C17.1141 12.9808 16.8342 12.9613 16.5625 12.7539C16.5063 12.6846 16.4672 12.6065 16.4453 12.5196C16.4258 12.2986 16.4193 12.0772 16.4258 11.8555C14.4466 11.8555 12.4675 11.8555 10.4883 11.8555C10.4883 10.6055 10.4883 9.3555 10.4883 8.1055C12.4675 8.1055 14.4466 8.1055 16.4258 8.1055C16.4193 7.88378 16.4258 7.66241 16.4453 7.44144C16.5993 7.08132 16.8662 6.95761 17.2461 7.07034C17.2982 7.0964 17.3503 7.12241 17.4023 7.14847C18.2858 8.01233 19.1452 8.89124 19.9805 9.78519Z" fill="#242430" fill-opacity="0.501961"/>
<path opacity="0.985" fill-rule="evenodd" clip-rule="evenodd" d="M10.4883 13.0273C11.3607 13.0273 12.2331 13.0273 13.1055 13.0273C13.1241 14.6959 13.1046 16.3625 13.0469 18.0273C12.9883 18.1901 12.8776 18.3008 12.7148 18.3594C11.9728 18.3789 11.2306 18.3854 10.4883 18.3789C10.4883 16.595 10.4883 14.8112 10.4883 13.0273Z" fill="#242430" fill-opacity="0.501961"/>
</g>
<defs>
<clipPath id="clip0_14_3024">
<rect width="20" height="20" fill="white"/>
</clipPath>
</defs>
</svg>
