<svg width="20" height="20" viewBox="0 0 20 20" fill="none" xmlns="http://www.w3.org/2000/svg">
<path d="M8.92521 8.28389C8.92521 7.6902 9.40649 7.20891 10.0002 7.20891C10.5939 7.20891 11.0752 7.6902 11.0752 8.28389C11.0752 8.87759 10.5939 9.35887 10.0002 9.35887C9.40649 9.35887 8.92521 8.87759 8.92521 8.28389Z" fill="white"/>
<path fill-rule="evenodd" clip-rule="evenodd" d="M5.50358 3.15982C5.50358 1.8339 6.57845 0.759033 7.90437 0.759033H12.3471C13.5344 0.759033 14.497 1.7216 14.497 2.90899C14.497 3.38395 14.882 3.76898 15.357 3.76898H15.8638C17.2268 3.76898 18.4255 4.82675 18.37 6.27635C18.2988 8.13483 17.9378 11.1159 16.4902 13.7541C16.0978 14.4692 15.5737 15.1717 15.0072 15.8262L14.9645 15.8755C14.1495 16.8172 13.47 17.6023 12.7395 18.1375C11.9537 18.7132 11.1151 18.9999 10.0003 18.9999C8.88551 18.9999 8.04687 18.7132 7.26111 18.1375C6.53058 17.6023 5.85106 16.8172 5.03608 15.8755L4.99343 15.8262C4.4269 15.1717 3.90283 14.4692 3.51043 13.7541C2.10938 11.2008 1.72527 8.50533 1.63796 6.7759C1.56442 5.31929 2.77177 4.27063 4.12715 4.27063H4.39277C5.00626 4.27063 5.50358 3.77331 5.50358 3.15982ZM10.0002 5.91894C8.69406 5.91894 7.63523 6.97776 7.63523 8.28389C7.63523 9.36642 8.36256 10.2791 9.3552 10.5598V13.4438C9.3552 13.8 9.64397 14.0888 10.0002 14.0888C10.3564 14.0888 10.6452 13.8 10.6452 13.4438V10.5598C11.6378 10.2791 12.3651 9.36642 12.3651 8.28389C12.3651 6.97776 11.3063 5.91894 10.0002 5.91894Z" fill="white"/>
</svg>
