<svg width="20" height="20" viewBox="0 0 20 20" fill="none" xmlns="http://www.w3.org/2000/svg">
<path d="M8.92521 8.28414C8.92521 7.69044 9.40649 7.20916 10.0002 7.20916C10.5939 7.20916 11.0752 7.69044 11.0752 8.28414C11.0752 8.87783 10.5939 9.35912 10.0002 9.35912C9.40649 9.35912 8.92521 8.87783 8.92521 8.28414Z" fill="#242430" fill-opacity="0.501961"/>
<path fill-rule="evenodd" clip-rule="evenodd" d="M5.50358 3.16007C5.50358 1.83415 6.57845 0.759277 7.90437 0.759277H12.3471C13.5344 0.759277 14.497 1.72185 14.497 2.90924C14.497 3.38419 14.882 3.76922 15.357 3.76922H15.8638C17.2268 3.76922 18.4255 4.82699 18.37 6.2766C18.2988 8.13507 17.9378 11.1162 16.4902 13.7543C16.0978 14.4694 15.5737 15.1719 15.0072 15.8265L14.9645 15.8757C14.1495 16.8174 13.47 17.6026 12.7395 18.1378C11.9537 18.7134 11.1151 19.0002 10.0003 19.0002C8.88551 19.0002 8.04687 18.7134 7.26111 18.1378C6.53058 17.6026 5.85106 16.8174 5.03608 15.8757L4.99343 15.8265C4.4269 15.1719 3.90283 14.4694 3.51043 13.7543C2.10938 11.201 1.72527 8.50558 1.63796 6.77614C1.56442 5.31954 2.77177 4.27088 4.12715 4.27088H4.39277C5.00626 4.27088 5.50358 3.77355 5.50358 3.16007ZM10.0002 5.91918C8.69406 5.91918 7.63523 6.97801 7.63523 8.28414C7.63523 9.36666 8.36256 10.2793 9.3552 10.5601V13.444C9.3552 13.8003 9.64397 14.089 10.0002 14.089C10.3564 14.089 10.6452 13.8003 10.6452 13.444V10.5601C11.6378 10.2793 12.3651 9.36666 12.3651 8.28414C12.3651 6.97801 11.3063 5.91918 10.0002 5.91918Z" fill="#242430" fill-opacity="0.501961"/>
</svg>
