<svg width="20" height="20" viewBox="0 0 20 20" fill="none" xmlns="http://www.w3.org/2000/svg">
<g clip-path="url(#clip0_14_3055)">
<path d="M15.8333 18.3334H4.16663C3.50358 18.3334 2.8677 18.07 2.39886 17.6012C1.93002 17.1323 1.66663 16.4965 1.66663 15.8334V2.50008C1.66663 2.27907 1.75442 2.06711 1.9107 1.91083C2.06698 1.75455 2.27895 1.66675 2.49996 1.66675H14.1666C14.3876 1.66675 14.5996 1.75455 14.7559 1.91083C14.9122 2.06711 15 2.27907 15 2.50008V8.33341H18.3333V15.8334C18.3333 16.4965 18.0699 17.1323 17.6011 17.6012C17.1322 18.07 16.4963 18.3334 15.8333 18.3334ZM15 10.0001V15.8334C15 16.0544 15.0878 16.2664 15.244 16.4227C15.4003 16.579 15.6123 16.6667 15.8333 16.6667C16.0543 16.6667 16.2663 16.579 16.4225 16.4227C16.5788 16.2664 16.6666 16.0544 16.6666 15.8334V10.0001H15ZM4.16663 5.00008V10.0001H9.16663V5.00008H4.16663ZM4.16663 10.8334V12.5001H12.5V10.8334H4.16663ZM4.16663 13.3334V15.0001H12.5V13.3334H4.16663ZM5.83329 6.66675H7.49996V8.33341H5.83329V6.66675Z" fill="#242430" fill-opacity="0.501961"/>
</g>
<defs>
<clipPath id="clip0_14_3055">
<rect width="20" height="20" fill="white"/>
</clipPath>
</defs>
</svg>
