<svg width="20" height="20" viewBox="0 0 20 20" fill="none" xmlns="http://www.w3.org/2000/svg">
<g clip-path="url(#clip0_3_2456)">
<path d="M15.8334 18.3334H4.16675C3.50371 18.3334 2.86782 18.07 2.39898 17.6012C1.93014 17.1323 1.66675 16.4965 1.66675 15.8334V2.50008C1.66675 2.27907 1.75455 2.06711 1.91083 1.91083C2.06711 1.75455 2.27907 1.66675 2.50008 1.66675H14.1667C14.3878 1.66675 14.5997 1.75455 14.756 1.91083C14.9123 2.06711 15.0001 2.27907 15.0001 2.50008V8.33341H18.3334V15.8334C18.3334 16.4965 18.07 17.1323 17.6012 17.6012C17.1323 18.07 16.4965 18.3334 15.8334 18.3334ZM15.0001 10.0001V15.8334C15.0001 16.0544 15.0879 16.2664 15.2442 16.4227C15.4004 16.579 15.6124 16.6667 15.8334 16.6667C16.0544 16.6667 16.2664 16.579 16.4227 16.4227C16.579 16.2664 16.6667 16.0544 16.6667 15.8334V10.0001H15.0001ZM4.16675 5.00008V10.0001H9.16675V5.00008H4.16675ZM4.16675 10.8334V12.5001H12.5001V10.8334H4.16675ZM4.16675 13.3334V15.0001H12.5001V13.3334H4.16675ZM5.83341 6.66675H7.50008V8.33341H5.83341V6.66675Z" fill="white"/>
</g>
<defs>
<clipPath id="clip0_3_2456">
<rect width="20" height="20" fill="white"/>
</clipPath>
</defs>
</svg>
