<svg width="20" height="20" viewBox="0 0 20 20" fill="none" xmlns="http://www.w3.org/2000/svg">
<path opacity="0.956" fill-rule="evenodd" clip-rule="evenodd" d="M9.74615 1.42579C10.7269 1.42341 11.1371 1.90518 10.9766 2.8711C10.6832 3.45061 10.221 3.65243 9.5899 3.47657C8.94396 3.12681 8.76818 2.61249 9.06255 1.9336C9.22072 1.66404 9.44857 1.49477 9.74615 1.42579Z" fill="white"/>
<path opacity="0.991" fill-rule="evenodd" clip-rule="evenodd" d="M9.9024 4.39444C10.4154 4.37651 10.8256 4.57182 11.1329 4.98038C11.9735 6.06237 12.8329 7.13007 13.711 8.1835C14.4053 8.00503 15.1019 7.82925 15.8008 7.65616C16.4899 7.56116 16.9781 7.82807 17.2657 8.45694C17.3237 8.70167 17.3367 8.94905 17.3047 9.19913C16.823 11.1262 16.3412 13.0533 15.8594 14.9804C15.6699 15.4498 15.3249 15.7298 14.8243 15.8202C11.5951 15.8463 8.36596 15.8463 5.13678 15.8202C4.63619 15.7298 4.29115 15.4498 4.10162 14.9804C3.61985 13.0533 3.13808 11.1262 2.65631 9.19913C2.54011 8.43057 2.8461 7.91628 3.57428 7.65616C3.84992 7.62538 4.12334 7.63839 4.39459 7.69522C5.04604 7.85807 5.69709 8.02085 6.34772 8.1835C7.30389 6.99944 8.2674 5.82104 9.23834 4.64835C9.44857 4.51991 9.66994 4.43526 9.9024 4.39444Z" fill="white"/>
<path opacity="0.957" fill-rule="evenodd" clip-rule="evenodd" d="M1.97256 4.98041C2.77449 4.87819 3.23022 5.22323 3.33974 6.01557C3.19365 6.90252 2.68584 7.22807 1.81631 6.99213C1.27967 6.67174 1.10389 6.20952 1.28896 5.60541C1.42579 5.2926 1.65366 5.08428 1.97256 4.98041Z" fill="white"/>
<path opacity="0.957" fill-rule="evenodd" clip-rule="evenodd" d="M17.4023 4.98037C18.4302 4.93384 18.8533 5.4156 18.6719 6.42568C18.3613 7.01982 17.886 7.20861 17.2461 6.99209C16.6846 6.66193 16.5088 6.18666 16.7187 5.56631C16.8707 5.27736 17.0985 5.08205 17.4023 4.98037Z" fill="white"/>
<path opacity="0.966" fill-rule="evenodd" clip-rule="evenodd" d="M4.82432 16.6211C8.26186 16.6146 11.6994 16.6211 15.1368 16.6406C15.711 16.8185 15.9258 17.2026 15.7814 17.793C15.6487 18.0688 15.4339 18.2446 15.1368 18.3203C11.6993 18.3464 8.26182 18.3464 4.82432 18.3203C4.25018 18.1425 4.03533 17.7584 4.17979 17.168C4.30803 16.8798 4.52287 16.6975 4.82432 16.6211Z" fill="white"/>
</svg>
