<svg width="20" height="20" viewBox="0 0 20 20" fill="none" xmlns="http://www.w3.org/2000/svg">
<g clip-path="url(#clip0_3_2462)">
<path opacity="0.991" fill-rule="evenodd" clip-rule="evenodd" d="M9.51172 -0.0195312C9.87629 -0.0195312 10.2409 -0.0195312 10.6055 -0.0195312C11.2827 0.110634 11.8947 0.390581 12.4414 0.820312C12.6303 0.983914 12.7865 1.17271 12.9102 1.38672C13.5898 1.6115 13.9869 2.08025 14.1016 2.79297C14.2419 3.73909 14.1963 4.6766 13.9648 5.60547C14.2082 5.60637 14.3579 5.72355 14.4141 5.95703C14.4618 6.79895 14.2665 7.5802 13.8281 8.30078C13.7507 8.38504 13.6596 8.45016 13.5547 8.49609C13.2701 9.76355 12.5865 10.7466 11.5039 11.4453C9.93848 12.1788 8.57777 11.8988 7.42188 10.6055C6.89582 9.99598 6.5573 9.29285 6.40625 8.49609C6.21191 8.40594 6.06871 8.2627 5.97656 8.06641C5.7225 7.50582 5.55973 6.91988 5.48828 6.30859C5.49375 6.08504 5.55883 5.8832 5.68359 5.70312C5.78211 5.65074 5.88629 5.6182 5.99609 5.60547C5.50945 4.07371 5.78938 2.70651 6.83594 1.50391C7.5657 0.700672 8.45762 0.192857 9.51172 -0.0195312Z" fill="white"/>
<path opacity="0.988" fill-rule="evenodd" clip-rule="evenodd" d="M11.1523 19.9805C10.371 19.9805 9.58976 19.9805 8.80851 19.9805C6.39199 19.8385 4.10035 19.22 1.93351 18.125C1.84958 18.08 1.77797 18.0214 1.71867 17.9492C1.57153 17.043 1.51945 16.1316 1.56242 15.2148C1.60397 14.4218 1.93601 13.7902 2.55851 13.3203C2.66268 13.2682 2.76685 13.2161 2.87101 13.1641C4.3325 12.7749 5.69316 12.1695 6.95304 11.3477C7.04754 11.4738 7.11265 11.617 7.14836 11.7773C7.67777 13.5046 8.23117 15.2233 8.80851 16.9336C9.04129 16.3199 9.26265 15.7014 9.47258 15.0781C9.22492 14.7066 9.02312 14.3095 8.86711 13.8867C8.69656 13.3557 8.85933 12.9716 9.35539 12.7344C9.81531 12.5963 10.2711 12.6093 10.7226 12.7734C11.1307 13.0436 11.2543 13.4146 11.0937 13.8867C10.9377 14.3095 10.7359 14.7066 10.4882 15.0781C10.6981 15.7014 10.9195 16.3199 11.1523 16.9336C11.7562 15.1023 12.3486 13.2664 12.9296 11.4258C12.9448 11.3895 12.9708 11.3635 13.0077 11.3477C13.5514 11.701 14.1178 12.02 14.707 12.3047C15.5911 12.6818 16.4895 13.0204 17.4023 13.3203C17.9439 13.7072 18.2629 14.2346 18.3593 14.9023C18.4602 15.9453 18.4146 16.9805 18.2226 18.0078C16.7265 18.8234 15.138 19.3833 13.457 19.6875C12.6866 19.8147 11.9183 19.9124 11.1523 19.9805Z" fill="white"/>
</g>
<defs>
<clipPath id="clip0_3_2462">
<rect width="20" height="20" fill="white"/>
</clipPath>
</defs>
</svg>
