<svg width="20" height="20" viewBox="0 0 20 20" fill="none" xmlns="http://www.w3.org/2000/svg">
<g clip-path="url(#clip0_14_3059)">
<path opacity="0.983" fill-rule="evenodd" clip-rule="evenodd" d="M8.43422 -0.0506692C8.98158 -0.111379 9.50407 -0.0277798 10.0017 0.200128C11.0407 -0.263006 11.9743 -0.109744 12.8023 0.659922C13.37 1.39981 13.4815 2.20793 13.1367 3.08429C13.0531 3.22362 12.9695 3.36296 12.8859 3.50229C12.1253 4.27679 11.352 5.03612 10.566 5.78036C10.1759 6.03115 9.78572 6.03115 9.39561 5.78036C8.60957 5.03612 7.83628 4.27679 7.07574 3.50229C6.41986 2.53366 6.44774 1.58621 7.15933 0.659922C7.51693 0.296634 7.9419 0.0597692 8.43422 -0.0506692Z" fill="#242430" fill-opacity="0.501961"/>
<path opacity="0.987" fill-rule="evenodd" clip-rule="evenodd" d="M19.093 3.96178C19.8398 3.90728 20.1255 4.24167 19.9499 4.96497C17.2608 9.89731 14.5716 14.8296 11.8826 19.762C11.625 20.0136 11.3255 20.0763 10.9839 19.9501C9.78105 18.9828 8.58976 18.0005 7.41001 17.0032C6.63781 17.9831 5.8506 18.9514 5.04834 19.9083C4.76967 20.0476 4.49103 20.0476 4.21236 19.9083C4.10343 19.8273 4.02681 19.7228 3.98246 19.5948C3.96854 18.0621 3.95458 16.5295 3.94066 14.9968C2.65108 13.9339 1.36923 12.8611 0.0951082 11.7783C-0.0976207 11.4729 -0.0976207 11.1664 0.0951082 10.8587C0.313565 10.6927 0.557394 10.5743 0.826599 10.5034C6.92744 8.34216 13.0162 6.16165 19.093 3.96178ZM12.2797 10.3153C10.4347 12.0986 8.57463 13.8681 6.69942 15.6238C6.23963 16.209 5.77984 16.7942 5.32004 17.3794C5.29216 16.5991 5.29216 15.8189 5.32004 15.0386C7.63147 13.4478 9.95134 11.8734 12.2797 10.3153Z" fill="#242430" fill-opacity="0.501961"/>
</g>
<defs>
<clipPath id="clip0_14_3059">
<rect width="20" height="20" fill="white"/>
</clipPath>
</defs>
</svg>
