<svg width="20" height="20" viewBox="0 0 20 20" fill="none" xmlns="http://www.w3.org/2000/svg">
<path opacity="0.99" fill-rule="evenodd" clip-rule="evenodd" d="M9.69164 0.916016C13.7599 0.996512 16.6459 2.87196 18.3495 6.54239C19.561 9.87844 19.0922 12.9503 16.9429 15.758C14.7776 18.226 12.0534 19.2851 8.77008 18.935C5.45406 18.3992 3.08551 16.6127 1.66436 13.5754C0.31108 10.022 0.844615 6.78844 3.26497 3.87471C5.0123 2.03374 7.15454 1.04751 9.69164 0.916016ZM9.74015 5.08729C10.8314 5.0545 11.2922 5.57184 11.1225 6.63939C10.7541 7.23133 10.2286 7.43339 9.54613 7.24568C9.04621 7.07874 8.7875 6.73111 8.77008 6.20287C8.81897 5.58833 9.14234 5.21646 9.74015 5.08729ZM8.9641 8.09449C9.64314 8.09449 10.3222 8.09449 11.0012 8.09449C11.0012 10.358 11.0012 12.6214 11.0012 14.8849C10.3222 14.8849 9.64314 14.8849 8.9641 14.8849C8.9641 12.6214 8.9641 10.358 8.9641 8.09449Z" fill="#242430" fill-opacity="0.501961"/>
</svg>
