<svg width="20" height="20" viewBox="0 0 20 20" fill="none" xmlns="http://www.w3.org/2000/svg">
<g clip-path="url(#clip0_3_2377)">
<path opacity="0.97" fill-rule="evenodd" clip-rule="evenodd" d="M9.35548 -0.0195312C9.51173 -0.0195312 9.66798 -0.0195312 9.82423 -0.0195312C9.97966 0.0513598 10.0903 0.168547 10.1563 0.332031C10.1823 0.917969 10.1823 1.50391 10.1563 2.08984C9.95501 2.44042 9.66204 2.53807 9.27735 2.38281C9.16122 2.31387 9.07657 2.21622 9.02345 2.08984C8.99739 1.50391 8.99739 0.917969 9.02345 0.332031C9.08938 0.168547 9.20005 0.0513598 9.35548 -0.0195312Z" fill="white"/>
<path opacity="0.944" fill-rule="evenodd" clip-rule="evenodd" d="M5.87894 1.58203C6.04569 1.59117 6.20194 1.63674 6.34769 1.71875C6.70577 2.02474 7.06382 2.33073 7.4219 2.63672C7.68745 3.16788 7.5312 3.50642 6.95315 3.65234C6.84159 3.62282 6.73093 3.59027 6.62112 3.55469C6.23702 3.22266 5.85288 2.89062 5.46878 2.55859C5.25421 2.07429 5.39093 1.74877 5.87894 1.58203Z" fill="white"/>
<path opacity="0.944" fill-rule="evenodd" clip-rule="evenodd" d="M13.1445 1.58203C13.7503 1.66127 13.9391 1.98679 13.7109 2.55859C13.3268 2.89062 12.9426 3.22266 12.5585 3.55469C12.1313 3.72838 11.8253 3.60469 11.6406 3.18359C11.6059 3.00501 11.632 2.83574 11.7187 2.67578C12.0898 2.35677 12.4609 2.03776 12.832 1.71875C12.9358 1.66102 13.04 1.61545 13.1445 1.58203Z" fill="white"/>
<path opacity="0.996" fill-rule="evenodd" clip-rule="evenodd" d="M1.73833 4.55079C6.43888 4.54426 11.1394 4.55079 15.8399 4.57032C16.5495 4.75911 16.9988 5.20833 17.1875 5.91797C17.2071 6.30836 17.2136 6.69899 17.2071 7.08985C12.0508 7.09637 6.89458 7.08985 1.73833 7.07032C0.991204 6.80383 0.685211 6.27649 0.82036 5.48829C0.977309 5.0254 1.2833 4.7129 1.73833 4.55079Z" fill="white"/>
<path opacity="0.997" fill-rule="evenodd" clip-rule="evenodd" d="M17.0117 19.9805C12.2461 19.9805 7.48047 19.9805 2.71484 19.9805C1.69979 19.7271 1.06828 19.0891 0.820313 18.0664C0.794271 14.668 0.794271 11.2695 0.820313 7.87109C1.19301 8.11246 1.60317 8.23617 2.05078 8.24219C7.03777 8.2552 12.0247 8.26824 17.0117 8.28125C17.6587 8.44641 18.0949 8.84355 18.3203 9.47266C18.377 10.2257 18.3965 10.9809 18.3789 11.7383C17.1403 11.7202 15.9033 11.7397 14.668 11.7969C13.9737 12.413 13.3031 13.0575 12.6563 13.7305C12.5261 13.9648 12.5261 14.1992 12.6563 14.4336C13.3031 15.1066 13.9737 15.7511 14.668 16.3672C15.9033 16.4243 17.1403 16.4439 18.3789 16.4258C18.3966 17.2091 18.377 17.9904 18.3203 18.7695C18.088 19.3992 17.6518 19.8029 17.0117 19.9805ZM3.73047 14.082C4.90242 14.0755 6.0743 14.082 7.24609 14.1016C7.59113 14.1341 7.77996 14.3229 7.8125 14.668C7.83856 15.4492 7.83856 16.2305 7.8125 17.0117C7.77996 17.3568 7.59113 17.5456 7.24609 17.5781C6.07422 17.6042 4.90234 17.6042 3.73047 17.5781C3.38542 17.5456 3.19661 17.3568 3.16406 17.0117C3.13802 16.2305 3.13802 15.4492 3.16406 14.668C3.20358 14.3225 3.39239 14.1272 3.73047 14.082Z" fill="white"/>
<path opacity="0.994" fill-rule="evenodd" clip-rule="evenodd" d="M15.0586 12.9102C16.4258 12.9102 17.793 12.9102 19.1602 12.9102C19.1602 13.6914 19.1602 14.4727 19.1602 15.2539C17.7929 15.2604 16.4257 15.2539 15.0586 15.2344C14.6739 14.8562 14.2963 14.4721 13.9258 14.082C14.3042 13.6906 14.6818 13.3 15.0586 12.9102Z" fill="white"/>
<path fill-rule="evenodd" clip-rule="evenodd" d="M4.31641 15.2539C5.09766 15.2539 5.87891 15.2539 6.66016 15.2539C6.66016 15.6445 6.66016 16.0352 6.66016 16.4258C5.87891 16.4258 5.09766 16.4258 4.31641 16.4258C4.31641 16.0352 4.31641 15.6445 4.31641 15.2539Z" fill="white"/>
</g>
<defs>
<clipPath id="clip0_3_2377">
<rect width="20" height="20" fill="white"/>
</clipPath>
</defs>
</svg>
