<svg width="20" height="20" viewBox="0 0 20 20" fill="none" xmlns="http://www.w3.org/2000/svg">
<g clip-path="url(#clip0_14_2941)">
<path d="M10.4278 1.66748C11.0163 3.33008 12.1716 4.73226 13.6909 5.62787C15.2103 6.52348 16.9966 6.85526 18.7362 6.56498C18.6693 7.35783 18.3521 8.10888 17.8304 8.70958C17.3086 9.31028 16.6094 9.7295 15.8337 9.90665V15.8333L17.5003 15.8341V17.5008H2.50034V15.8341H4.16701V9.90665C3.39128 9.72942 2.69198 9.31019 2.1701 8.70953C1.64823 8.10886 1.3308 7.35785 1.26367 6.56498C3.00344 6.85573 4.79002 6.52427 6.30971 5.6288C7.82939 4.73332 8.98502 3.33109 9.57367 1.66831H10.4278V1.66748ZM14.167 9.99998H5.83367V15.8333H14.167V9.99998Z" fill="white"/>
</g>
<defs>
<clipPath id="clip0_14_2941">
<rect width="20" height="20" fill="white"/>
</clipPath>
</defs>
</svg>
