<svg width="20" height="20" viewBox="0 0 20 20" fill="none" xmlns="http://www.w3.org/2000/svg">
<g clip-path="url(#clip0_14_2789)">
<path d="M18.3333 8.33333H9.99996V14.485C9.99996 15.6592 10.5266 16.7633 11.4208 17.5H2.49996C2.27895 17.5 2.06698 17.4122 1.9107 17.2559C1.75442 17.0996 1.66663 16.8877 1.66663 16.6667V3.33333C1.66663 3.11232 1.75442 2.90036 1.9107 2.74408C2.06698 2.5878 2.27895 2.5 2.49996 2.5H8.67829L10.345 4.16667H17.5C17.721 4.16667 17.9329 4.25446 18.0892 4.41074C18.2455 4.56702 18.3333 4.77899 18.3333 5V8.33333ZM11.6666 10H18.3333V14.485C18.3333 15.2325 17.9616 15.93 17.3441 16.3433L15 17.9158L12.6558 16.345C12.351 16.1401 12.1013 15.8633 11.9288 15.5391C11.7563 15.2148 11.6663 14.8531 11.6666 14.4858V10Z" fill="#242430" fill-opacity="0.501961"/>
</g>
<defs>
<clipPath id="clip0_14_2789">
<rect width="20" height="20" fill="white"/>
</clipPath>
</defs>
</svg>
