<svg width="20" height="20" viewBox="0 0 20 20" fill="none" xmlns="http://www.w3.org/2000/svg">
<path d="M7 7.87484C7 8.19249 7.15 8.23955 7.49 8.31013L8 8.41602V7.41602H7.7C7.32 7.41602 7 7.6219 7 7.87484Z" fill="#242430" fill-opacity="0.501961"/>
<path d="M9 13.416H9.6C10.38 13.416 11 13.0043 11 12.4984C11 11.8631 10.7 11.769 10.02 11.6278L9 11.416V13.416Z" fill="#242430" fill-opacity="0.501961"/>
<path d="M15.822 4.54802L13.977 6.39302C13.842 6.52802 13.671 6.59102 13.5 6.59102C13.329 6.59102 13.158 6.52802 13.023 6.39302C12.762 6.13202 12.762 5.70002 13.023 5.43902L14.868 3.59402C13.284 2.24402 11.241 1.41602 9 1.41602C4.032 1.41602 0 5.44802 0 10.416C0 15.384 4.032 19.416 9 19.416C13.968 19.416 18 15.384 18 10.416C18 8.17502 17.172 6.13202 15.822 4.54802ZM10.575 10.254C11.151 10.461 11.925 10.875 11.925 12.198C11.925 13.323 11.034 14.25 9.945 14.25H9.675V14.475C9.675 14.844 9.369 15.15 9 15.15C8.631 15.15 8.325 14.844 8.325 14.475V14.25H8.253C7.056 14.25 6.075 13.242 6.075 12C6.075 11.622 6.381 11.316 6.75 11.316C7.119 11.316 7.425 11.622 7.425 11.991C7.425 12.486 7.794 12.891 8.253 12.891H8.325V10.893L7.425 10.578C6.849 10.371 6.075 9.95702 6.075 8.63402C6.075 7.50902 6.966 6.58202 8.055 6.58202H8.325V6.36602C8.325 5.99702 8.631 5.69102 9 5.69102C9.369 5.69102 9.675 5.99702 9.675 6.36602V6.59102H9.747C10.944 6.59102 11.925 7.59902 11.925 8.84102C11.925 9.21002 11.619 9.51602 11.25 9.51602C10.881 9.51602 10.575 9.21002 10.575 8.84102C10.575 8.34602 10.206 7.94102 9.747 7.94102H9.675V9.93902L10.575 10.254Z" fill="#242430" fill-opacity="0.501961"/>
<path d="M18.9455 0.834197C18.8727 0.670561 18.7455 0.534197 18.5727 0.46147C18.4909 0.434197 18.4091 0.416016 18.3182 0.416016H14.6818C14.3091 0.416016 14 0.725107 14 1.09783C14 1.47056 14.3091 1.77965 14.6818 1.77965H16.6727L15.1545 3.29783C15.5 3.59783 15.8182 3.91602 16.1182 4.26147L17.6364 2.74329V4.7342C17.6364 5.10693 17.9455 5.41602 18.3182 5.41602C18.6909 5.41602 19 5.10693 19 4.7342V1.09783C19 1.00692 18.9818 0.925107 18.9455 0.834197Z" fill="#242430" fill-opacity="0.501961"/>
</svg>
