<svg width="20" height="21" viewBox="0 0 20 21" fill="none" xmlns="http://www.w3.org/2000/svg">
<path d="M15.7894 5.6791H16.8421C16.695 5.30999 16.5402 4.96823 16.3777 4.62646L15.7894 5.6791Z" fill="#242430" fill-opacity="0.501961"/>
<path d="M15.7894 4.03837C15.4477 3.87583 15.1059 3.72103 14.7368 3.57397V4.62661L15.7894 4.03837Z" fill="#242430" fill-opacity="0.501961"/>
<path d="M16.8452 4.62654L19.7833 1.68839C20.0722 1.39955 20.0722 0.921478 19.7833 0.632642C19.4945 0.343807 19.0164 0.343807 18.7276 0.632642L15.7894 3.5708C16.1679 3.89947 16.5165 4.25803 16.8452 4.62654Z" fill="#242430" fill-opacity="0.501961"/>
<path d="M14.7368 2.47445C14.7368 1.92467 14.4966 1.46875 14.207 1.46875C13.9244 1.46875 13.6983 1.89785 13.6842 2.42081C14.0516 2.75604 14.4048 3.13151 14.7368 3.57401V2.47445Z" fill="#242430" fill-opacity="0.501961"/>
<path d="M18.9474 6.20905C18.9474 5.9194 18.4944 5.6792 17.9481 5.6792H16.8422C17.2819 6.01124 17.6683 6.36447 17.9881 6.73183C18.521 6.7177 18.9474 6.49163 18.9474 6.20905Z" fill="#242430" fill-opacity="0.501961"/>
<path d="M10.5264 14.1001H10.8422C11.2527 14.1001 11.579 13.6667 11.579 13.1342C11.579 12.4655 11.4211 12.3664 11.0632 12.2178L10.5264 11.9949V14.1001Z" fill="#242430" fill-opacity="0.501961"/>
<path d="M18.0379 6.90664C18.0284 6.90664 18.0189 6.91612 18 6.91612H14.2105C14.1158 6.91612 14.0305 6.89717 13.9358 6.85928C13.7653 6.78349 13.6232 6.65086 13.5474 6.47086C13.5189 6.38559 13.5 6.30033 13.5 6.20559V2.41612C13.5 2.40664 13.5095 2.39717 13.5095 2.37822C12.2779 1.80033 10.9137 1.46875 9.47368 1.46875C4.24421 1.46875 0 5.71296 0 10.9424C0 16.1719 4.24421 20.4161 9.47368 20.4161C14.7032 20.4161 18.9474 16.1719 18.9474 10.9424C18.9474 9.50243 18.6158 8.13822 18.0379 6.90664ZM11.1316 10.7719C11.7379 10.9803 12.5526 11.4256 12.5526 12.8182C12.5526 14.0024 11.6147 14.9782 10.4684 14.9782H10.1842V15.2151C10.1842 15.6035 9.86211 15.9256 9.47368 15.9256C9.08526 15.9256 8.76316 15.6035 8.76316 15.2151V14.9782H8.68737C7.42737 14.9782 6.39474 13.9172 6.39474 12.6098C6.39474 12.2119 6.71684 11.8898 7.10526 11.8898C7.49368 11.8898 7.81579 12.2119 7.81579 12.6003C7.81579 13.1214 8.20421 13.5477 8.68737 13.5477H8.76316V11.4445L7.81579 11.113C7.20947 10.9045 6.39474 10.4593 6.39474 9.06665C6.39474 7.88243 7.33263 6.90664 8.47895 6.90664H8.76316V6.67928C8.76316 6.29086 9.08526 5.96875 9.47368 5.96875C9.86211 5.96875 10.1842 6.29086 10.1842 6.67928V6.91612H10.26C11.52 6.91612 12.5526 7.97717 12.5526 9.28454C12.5526 9.67296 12.2305 9.99507 11.8421 9.99507C11.4537 9.99507 11.1316 9.67296 11.1316 9.28454C11.1316 8.76349 10.7432 8.33717 10.26 8.33717H10.1842V10.4403L11.1316 10.7719Z" fill="#242430" fill-opacity="0.501961"/>
<path d="M7.36841 8.75037C7.36841 9.4191 7.5263 9.51817 7.8842 9.66678L8.42104 9.88969V7.78442H8.10525C7.70525 7.78442 7.36841 8.21786 7.36841 8.75037Z" fill="#242430" fill-opacity="0.501961"/>
</svg>
