<svg width="15" height="15" viewBox="0 0 15 15" fill="none" xmlns="http://www.w3.org/2000/svg">
<path opacity="0.993" fill-rule="evenodd" clip-rule="evenodd" d="M2.17188 0.484325C5.08991 0.469007 8.00659 0.484632 10.9219 0.5312C11.4773 0.722063 11.8263 1.10227 11.9688 1.67183C11.9844 2.2759 11.9896 2.88008 11.9844 3.48433C12.5886 3.47911 13.1928 3.48433 13.7969 3.49995C14.3664 3.64242 14.7466 3.99136 14.9375 4.54683C14.9893 7.46214 14.9997 10.3788 14.9688 13.2968C14.8073 13.9166 14.4167 14.3072 13.7969 14.4687C10.9219 14.4895 8.04688 14.4895 5.17188 14.4687C4.55209 14.3072 4.16147 13.9166 4 13.2968C3.98438 12.6928 3.97916 12.0886 3.98438 11.4843C3.38013 11.4895 2.77595 11.4843 2.17188 11.4687C1.55209 11.3072 1.16146 10.9166 1 10.2968C0.979166 7.42183 0.979166 4.54683 1 1.67183C1.16715 1.05157 1.55778 0.655738 2.17188 0.484325ZM2.48438 1.48433C5.20425 1.46911 7.923 1.48473 10.6406 1.5312C10.8454 1.61248 10.9548 1.76352 10.9688 1.98433C10.9844 2.48422 10.9896 2.98423 10.9844 3.48433C9.04684 3.47911 7.10934 3.48433 5.17188 3.49995C4.55209 3.66142 4.16147 4.05204 4 4.67183C3.98438 6.60929 3.97916 8.54679 3.98438 10.4843C3.43081 10.4978 2.87872 10.4821 2.32813 10.4375C2.12334 10.3562 2.01397 10.2051 2 9.98433C1.97917 7.31767 1.97917 4.65098 2 1.98433C2.04206 1.69753 2.20352 1.53086 2.48438 1.48433ZM5.48438 4.48433C8.15106 4.47911 10.8177 4.48433 13.4844 4.49995C13.7708 4.53642 13.9323 4.69786 13.9688 4.98433C13.9896 7.65098 13.9896 10.3177 13.9688 12.9843C13.9323 13.2708 13.7708 13.4322 13.4844 13.4687C10.8177 13.4895 8.15103 13.4895 5.48438 13.4687C5.19791 13.4322 5.03647 13.2708 5 12.9843C4.97916 10.3177 4.97916 7.65098 5 4.98433C5.04206 4.69751 5.20353 4.53086 5.48438 4.48433Z" fill="#242430" fill-opacity="0.501961"/>
</svg>
