<svg width="27" height="27" viewBox="0 0 27 27" fill="none" xmlns="http://www.w3.org/2000/svg">
<path d="M17.2444 1.74805H21.1815V8.94085H17.2444V1.74805Z" fill="#C8102E"/>
<path d="M4.22144 0H6.29936V8.93962H4.22144V0Z" fill="#C8102E"/>
<path d="M1.53897 8.94354H2.57793V6.99121H1.53897C1.26342 6.99121 0.999151 7.09405 0.804307 7.27712C0.609463 7.46019 0.5 7.70848 0.5 7.96737C0.5 8.22627 0.609463 8.47456 0.804307 8.65763C0.999151 8.8407 1.26342 8.94354 1.53897 8.94354Z" fill="#C8102E"/>
<path d="M22.8306 6.99243H24.9085V8.94476H22.8306V6.99243Z" fill="#C8102E"/>
<path d="M1.83863 26.4241H24.9081V22.725H19.6356L17.3684 18.4566L19.6356 14.1881H24.9081V10.489H1.53897C1.18216 10.4895 0.828866 10.4228 0.5 10.2927V25.1674C0.500867 25.5007 0.642214 25.82 0.893099 26.0555C1.14398 26.291 1.48397 26.4236 1.83863 26.4241Z" fill="#C8102E"/>
<path d="M7.94287 8.93962H15.5984V0H7.94287V8.93962ZM11.7783 1.95233H13.6309V3.49365H11.7783V1.95233ZM13.6309 5.44598V6.98729H11.7783V5.44598H13.6309Z" fill="#C8102E"/>
<path d="M20.653 21.1808H26.9141V15.7349H20.653L19.2061 18.4589L20.653 21.1808ZM21.0828 17.6872H22.9354V19.2285H21.0828V17.6872Z" fill="#C8102E"/>
</svg>
