<svg width="27" height="27" viewBox="0 0 27 27" fill="none" xmlns="http://www.w3.org/2000/svg">
<path d="M15.2802 0C13.8202 0 12.3929 0.432824 11.179 1.24374C9.96501 2.05465 9.01883 3.20723 8.46011 4.55573C7.90138 5.90423 7.75521 7.38809 8.04004 8.81965C8.32488 10.2512 9.02794 11.5662 10.0603 12.5983C11.0927 13.6304 12.4081 14.3332 13.84 14.618C15.272 14.9028 16.7563 14.7566 18.1051 14.198C19.454 13.6395 20.6069 12.6936 21.4181 11.48C22.2292 10.2663 22.6622 8.83951 22.6622 7.3799C22.66 5.42329 21.8816 3.54745 20.4976 2.16392C19.1137 0.780386 17.2373 0.00216739 15.2802 0ZM16.0552 10.7351V10.8969C16.0552 11.1022 15.9736 11.2992 15.8284 11.4444C15.6831 11.5896 15.4861 11.6712 15.2807 11.6712C15.0753 11.6712 14.8783 11.5896 14.733 11.4444C14.5878 11.2992 14.5062 11.1022 14.5062 10.8969V10.8221C14.1122 10.747 13.739 10.5882 13.4117 10.3564C13.3265 10.3008 13.2532 10.2289 13.1959 10.1449C13.1386 10.061 13.0983 9.96653 13.0775 9.86701C13.0567 9.7675 13.0557 9.66486 13.0745 9.56496C13.0934 9.46505 13.1318 9.36984 13.1874 9.28475C13.2431 9.19967 13.315 9.12638 13.399 9.06906C13.483 9.01175 13.5774 8.97154 13.677 8.95072C13.7765 8.92991 13.8792 8.9289 13.9791 8.94775C14.079 8.9666 14.1743 9.00494 14.2594 9.06059C14.5499 9.27888 14.9152 9.37311 15.2751 9.32263C15.4523 9.32464 15.6243 9.26256 15.7594 9.14783C15.8945 9.0331 15.9835 8.87344 16.0102 8.69825C16.0253 8.63244 16.0272 8.56429 16.0159 8.49773C16.0045 8.43117 15.9801 8.36751 15.9441 8.31042C15.908 8.25334 15.861 8.20395 15.8057 8.16511C15.7505 8.12627 15.6881 8.09874 15.6221 8.08411C14.9923 7.89134 14.3957 7.60347 13.8529 7.23046C13.6103 7.004 13.4297 6.71924 13.3282 6.40328C13.2268 6.08731 13.2079 5.75065 13.2734 5.42533C13.3388 5.10001 13.4865 4.79685 13.7023 4.54469C13.9181 4.29253 14.1948 4.09977 14.5062 3.98474V3.87112C14.5062 3.66576 14.5878 3.4688 14.733 3.32359C14.8783 3.17837 15.0753 3.09679 15.2807 3.09679C15.4861 3.09679 15.6831 3.17837 15.8284 3.32359C15.9736 3.4688 16.0552 3.66576 16.0552 3.87112V3.93458C16.3743 4.03228 16.6708 4.19232 16.9276 4.40542C17.0788 4.54428 17.1687 4.73751 17.1774 4.94262C17.1862 5.14772 17.113 5.34789 16.9741 5.4991C16.8352 5.65031 16.642 5.74016 16.4368 5.74889C16.2316 5.75763 16.0314 5.68453 15.8802 5.54567C15.7609 5.4639 15.6243 5.4109 15.4812 5.39083C15.338 5.37076 15.1921 5.38417 15.0549 5.43001C14.9827 5.45701 14.9191 5.50288 14.8707 5.56283C14.8222 5.62277 14.7907 5.69461 14.7795 5.77086C14.7682 5.81056 14.7649 5.85215 14.7701 5.89313C14.7752 5.9341 14.7885 5.97363 14.8092 6.00935C15.2236 6.2723 15.6712 6.47883 16.1402 6.62349C16.5656 6.77954 16.9316 7.06445 17.1871 7.43846C17.4427 7.81247 17.5751 8.25691 17.5659 8.70977C17.5566 9.16262 17.4062 9.6013 17.1356 9.96457C16.8649 10.3278 16.4876 10.5976 16.0563 10.7362L16.0552 10.7351Z" fill="#C8102E"/>
<path d="M22.3827 15.0771L14.8635 17.2941C15.1058 17.8885 15.23 18.5244 15.229 19.1662V19.4385C15.2279 19.8818 15.116 20.3178 14.9035 20.7069C14.6911 21.096 14.3847 21.4258 14.0124 21.6665C13.64 21.9072 13.2134 22.0511 12.7713 22.0851C12.3291 22.1191 11.8855 22.0422 11.4807 21.8613L7.53887 20.0884C7.35164 20.0042 7.20557 19.849 7.1328 19.657C7.06003 19.4651 7.06651 19.2521 7.15082 19.0649C7.23514 18.8777 7.39038 18.7317 7.58239 18.6589C7.77439 18.5862 7.98745 18.5927 8.17468 18.677L12.1165 20.4498C12.2853 20.5259 12.4705 20.5585 12.6551 20.5447C12.8398 20.5308 13.018 20.4709 13.1735 20.3704C13.329 20.2699 13.4568 20.1321 13.5453 19.9694C13.6338 19.8068 13.6801 19.6246 13.6799 19.4395V19.1672C13.6754 18.5219 13.4844 17.8915 13.1301 17.352C12.7757 16.8126 12.273 16.3869 11.6824 16.1262L8.27706 14.5909C7.62284 14.2965 6.91306 14.1458 6.19562 14.149C5.47818 14.1522 4.76976 14.3091 4.11817 14.6093L0.453798 16.2706C0.31857 16.3321 0.203898 16.4311 0.123472 16.556C0.0430458 16.6809 0.000263186 16.8263 0.000231342 16.9748V25.2124C-0.0028749 25.3395 0.0253408 25.4654 0.0823908 25.579C0.139441 25.6926 0.223573 25.7904 0.327369 25.8639C0.431165 25.9373 0.551437 25.984 0.67758 26C0.803724 26.016 0.931865 26.0007 1.05071 25.9555L6.20683 23.9923L12.3397 26.1418C13.0281 26.3838 13.7613 26.4719 14.4874 26.3999C15.2136 26.328 15.9152 26.0977 16.5426 25.7252L24.885 20.8121C25.5413 20.4175 26.0316 19.7978 26.2645 19.0684C26.4973 18.339 26.4568 17.5498 26.1505 16.8481C25.8442 16.1464 25.2929 15.5801 24.5996 15.2548C23.9064 14.9294 23.1184 14.8674 22.3827 15.0801V15.0771Z" fill="#C8102E"/>
</svg>
