<svg width="27" height="27" viewBox="0 0 27 27" fill="none" xmlns="http://www.w3.org/2000/svg">
<path d="M17.2445 1.74799H21.1817V8.94079H17.2445V1.74799Z" fill="#515337"/>
<path d="M4.22144 0H6.29936V8.93962H4.22144V0Z" fill="#515337"/>
<path d="M1.53897 8.9436H2.57793V6.99127H1.53897C1.26342 6.99127 0.999151 7.09411 0.804307 7.27718C0.609463 7.46025 0.5 7.70854 0.5 7.96743C0.5 8.22633 0.609463 8.47462 0.804307 8.65769C0.999151 8.84076 1.26342 8.9436 1.53897 8.9436Z" fill="#515337"/>
<path d="M22.8307 6.99249H24.9086V8.94482H22.8307V6.99249Z" fill="#515337"/>
<path d="M1.83863 26.4242H24.9081V22.725H19.6356L17.3684 18.4566L19.6356 14.1882H24.9081V10.4891H1.53897C1.18216 10.4896 0.828866 10.4228 0.5 10.2928V25.1675C0.500867 25.5007 0.642214 25.82 0.893099 26.0556C1.14398 26.2911 1.48397 26.4236 1.83863 26.4242Z" fill="#515337"/>
<path d="M7.94287 8.93962H15.5984V0H7.94287V8.93962ZM11.7783 1.95233H13.6309V3.49365H11.7783V1.95233ZM13.6309 5.44598V6.98729H11.7783V5.44598H13.6309Z" fill="#515337"/>
<path d="M20.653 21.1807H26.9141V15.7347H20.653L19.2061 18.4588L20.653 21.1807ZM21.0828 17.6871H22.9354V19.2284H21.0828V17.6871Z" fill="#515337"/>
</svg>
