<svg width="27" height="27" viewBox="0 0 27 27" fill="none" xmlns="http://www.w3.org/2000/svg">
<path d="M15.2803 0C13.8203 0 12.3931 0.432824 11.1791 1.24374C9.96513 2.05465 9.01895 3.20723 8.46023 4.55573C7.9015 5.90423 7.75533 7.38809 8.04016 8.81965C8.325 10.2512 9.02807 11.5662 10.0605 12.5983C11.0928 13.6304 12.4082 14.3332 13.8401 14.618C15.2721 14.9028 16.7564 14.7566 18.1053 14.198C19.4541 13.6395 20.607 12.6936 21.4182 11.48C22.2293 10.2663 22.6623 8.83951 22.6623 7.3799C22.6601 5.42329 21.8817 3.54745 20.4978 2.16392C19.1138 0.780386 17.2375 0.00216739 15.2803 0ZM16.0554 10.7351V10.8969C16.0554 11.1022 15.9738 11.2992 15.8285 11.4444C15.6832 11.5896 15.4862 11.6712 15.2808 11.6712C15.0754 11.6712 14.8784 11.5896 14.7331 11.4444C14.5879 11.2992 14.5063 11.1022 14.5063 10.8969V10.8221C14.1123 10.747 13.7391 10.5882 13.4118 10.3564C13.3267 10.3008 13.2534 10.2289 13.196 10.1449C13.1387 10.061 13.0985 9.96653 13.0776 9.86701C13.0568 9.7675 13.0558 9.66486 13.0747 9.56496C13.0935 9.46505 13.1319 9.36984 13.1875 9.28475C13.2432 9.19967 13.3151 9.12638 13.3991 9.06906C13.4831 9.01175 13.5776 8.97154 13.6771 8.95072C13.7766 8.92991 13.8793 8.9289 13.9792 8.94775C14.0792 8.9666 14.1744 9.00494 14.2595 9.06059C14.55 9.27888 14.9153 9.37311 15.2752 9.32263C15.4524 9.32464 15.6244 9.26256 15.7595 9.14783C15.8946 9.0331 15.9837 8.87344 16.0103 8.69825C16.0254 8.63244 16.0274 8.56429 16.016 8.49773C16.0047 8.43117 15.9802 8.36751 15.9442 8.31042C15.9081 8.25334 15.8611 8.20395 15.8058 8.16511C15.7506 8.12627 15.6882 8.09874 15.6223 8.08411C14.9925 7.89134 14.3958 7.60347 13.8531 7.23046C13.6104 7.004 13.4298 6.71924 13.3283 6.40328C13.2269 6.08731 13.208 5.75065 13.2735 5.42533C13.339 5.10001 13.4866 4.79685 13.7024 4.54469C13.9182 4.29253 14.1949 4.09977 14.5063 3.98474V3.87112C14.5063 3.66576 14.5879 3.4688 14.7331 3.32359C14.8784 3.17837 15.0754 3.09679 15.2808 3.09679C15.4862 3.09679 15.6832 3.17837 15.8285 3.32359C15.9738 3.4688 16.0554 3.66576 16.0554 3.87112V3.93458C16.3744 4.03228 16.6709 4.19232 16.9277 4.40542C17.0789 4.54428 17.1688 4.73751 17.1775 4.94262C17.1863 5.14772 17.1132 5.34789 16.9743 5.4991C16.8354 5.65031 16.6421 5.74016 16.4369 5.74889C16.2318 5.75763 16.0315 5.68453 15.8803 5.54567C15.761 5.4639 15.6245 5.4109 15.4813 5.39083C15.3381 5.37076 15.1922 5.38417 15.0551 5.43001C14.9829 5.45701 14.9192 5.50288 14.8708 5.56283C14.8223 5.62277 14.7909 5.69461 14.7796 5.77086C14.7683 5.81056 14.7651 5.85215 14.7702 5.89313C14.7753 5.9341 14.7886 5.97363 14.8093 6.00935C15.2237 6.2723 15.6713 6.47883 16.1403 6.62349C16.5657 6.77954 16.9317 7.06445 17.1872 7.43846C17.4428 7.81247 17.5752 8.25691 17.566 8.70977C17.5567 9.16262 17.4063 9.6013 17.1357 9.96457C16.8651 10.3278 16.4877 10.5976 16.0564 10.7362L16.0554 10.7351Z" fill="#33000F"/>
<path d="M22.3827 15.0771L14.8635 17.2942C15.1058 17.8886 15.23 18.5244 15.229 19.1663V19.4386C15.2279 19.8819 15.116 20.3178 14.9035 20.7069C14.6911 21.096 14.3847 21.4259 14.0124 21.6666C13.64 21.9073 13.2134 22.0511 12.7713 22.0852C12.3291 22.1192 11.8855 22.0422 11.4807 21.8613L7.53887 20.0885C7.35164 20.0042 7.20557 19.849 7.1328 19.6571C7.06003 19.4651 7.06651 19.2521 7.15082 19.0649C7.23514 18.8778 7.39038 18.7317 7.58239 18.659C7.77439 18.5862 7.98745 18.5927 8.17468 18.677L12.1165 20.4498C12.2853 20.526 12.4705 20.5586 12.6551 20.5447C12.8398 20.5309 13.018 20.4709 13.1735 20.3705C13.329 20.27 13.4568 20.1321 13.5453 19.9695C13.6338 19.8069 13.6801 19.6247 13.6799 19.4396V19.1673C13.6754 18.5219 13.4844 17.8916 13.1301 17.3521C12.7757 16.8126 12.273 16.387 11.6824 16.1263L8.27706 14.5909C7.62284 14.2965 6.91306 14.1459 6.19562 14.149C5.47818 14.1522 4.76976 14.3092 4.11817 14.6094L0.453798 16.2706C0.31857 16.3321 0.203898 16.4312 0.123472 16.5561C0.0430458 16.6809 0.000263186 16.8263 0.000231342 16.9748V25.2125C-0.0028749 25.3396 0.0253408 25.4654 0.0823908 25.579C0.139441 25.6927 0.223573 25.7905 0.327369 25.8639C0.431165 25.9374 0.551437 25.9841 0.67758 26.0001C0.803724 26.0161 0.931865 26.0008 1.05071 25.9556L6.20683 23.9924L12.3397 26.1419C13.0281 26.3839 13.7613 26.472 14.4874 26.4C15.2136 26.328 15.9152 26.0977 16.5426 25.7253L24.885 20.8122C25.5413 20.4176 26.0316 19.7978 26.2645 19.0684C26.4973 18.3391 26.4568 17.5499 26.1505 16.8482C25.8442 16.1465 25.2929 15.5801 24.5996 15.2548C23.9064 14.9295 23.1184 14.8674 22.3827 15.0802V15.0771Z" fill="#33000F"/>
</svg>
